<svg id="Layer_2" data-name="Layer 2" xmlns="http://www.w3.org/2000/svg" viewBox="0 0 229.12 229.02"><defs><style>.cls-1{fill:#7258a5;stroke:#a08bc1;}.cls-1,.cls-2,.cls-3{stroke-miterlimit:10;stroke-width:3px;}.cls-2{fill:#686868;}.cls-2,.cls-3{stroke:#3a3a3a;}.cls-3{fill:#383838;}</style></defs><path class="cls-1" d="M257.53,158.76V130.35l-16.26-2A97.63,97.63,0,0,0,236.38,110l13.15-9.8L235.32,75.63,220.16,82a98.84,98.84,0,0,0-13.34-13.33l6.5-15.09L188.73,39.36l-10,13.11a97.09,97.09,0,0,0-18.12-4.84l-1.89-16.17H130.35l-2,16.15a97.15,97.15,0,0,0-18.22,4.85l-9.75-13.1L75.74,53.57l6.33,15.06a98.62,98.62,0,0,0-13.34,13.3l-15-6.47-14.2,24.59,13,9.88a98.51,98.51,0,0,0-4.92,18.36l-16.16,1.89v28.4l16.16,2a97.28,97.28,0,0,0,4.86,18.21l-13,9.7,14.2,24.59,15-6.29a98.64,98.64,0,0,0,13.35,13.37L75.52,235.1l24.59,14.21,9.8-12.9a97.37,97.37,0,0,0,18.38,4.91l1.89,16.16h28.4l2-16.17a97.5,97.5,0,0,0,18.3-4.9l9.67,13,24.6-14.21-6.3-15a99.08,99.08,0,0,0,13.38-13.4l14.87,6.4,14.2-24.59-12.92-9.82a97.86,97.86,0,0,0,4.84-18.14ZM144.42,215.43a71,71,0,1,1,71-71A71,71,0,0,1,144.42,215.43Z" transform="translate(-29.91 -29.96)"/><path class="cls-2" d="M162.38,106.42c-71-14.85-57.67,53.52-57.67,53.52L34.09,230.56c-7.33,14.68,3.16,21.71,3.16,21.71l97.33-97.34-4.31-4.66.06-12.36Z" transform="translate(-29.91 -29.96)"/><path class="cls-3" d="M182.5,126.59c14.85,71-53.53,57.67-53.53,57.67L58.35,254.88c-14.67,7.33-21.71-3.16-21.71-3.16L134,154.39l4.66,4.31,12.37-.06Z" transform="translate(-29.91 -29.96)"/></svg>